<?xml version="1.0" standalone="no"?><!DOCTYPE svg PUBLIC "-//W3C//DTD SVG 1.1//EN" "http://www.w3.org/Graphics/SVG/1.1/DTD/svg11.dtd"><svg class="icon" height="512" viewBox="0 0 1024 1024" version="1.1" xmlns="http://www.w3.org/2000/svg"><path d="M851.630923 339.630923c0-187.573307-152.057616-339.630923-339.630923-339.630923S172.369077 152.057616 172.369077 339.630923c0 8.161357 0.286005 16.251212 0.852908 24.269566 4.050035 57.374643 22.425855 110.765646 51.460469 156.751162l252.65987 451.755092c14.101067 25.214404 50.341985 25.352299 64.637127 0.24004l256.495401-450.682574C832.075332 469.278005 851.630923 406.755272 851.630923 339.630923zM512 215.356648c68.63609 0 124.274274 55.638185 124.274274 124.274274 0 68.63609-55.638185 124.274274-124.274274 124.274274S387.725726 408.267012 387.725726 339.630923C387.725726 270.994833 443.36391 215.356648 512 215.356648z" /></svg>